<?xml version="1.0" encoding="UTF-8"?>
<svg width="96px" height="60px" viewBox="0 0 96 60" version="1.1" xmlns="http://www.w3.org/2000/svg" xmlns:xlink="http://www.w3.org/1999/xlink">
    <g id="Page-1" stroke="none" stroke-width="1" fill="none" fill-rule="evenodd">
        <g id="Hipercard_logo">
            <rect id="Rectangle" fill="#B3131B" x="0" y="0" width="96" height="60"></rect>
            <rect id="Rectangle" fill="#FFFFFF" x="7" y="17" width="82" height="25"></rect>
            <path d="M40.1051036,50.7692347 L0.0242561294,50.7835256 L0.0242561294,50.6870647 C0.0242561294,50.6340101 0.0881817484,50.2900157 0.166310904,49.922635 C0.244440061,49.5552592 0.365907468,48.9708962 0.436236321,48.6240543 C0.506560323,48.2772125 0.626805296,47.6878239 0.703440509,47.3143019 C0.780075578,46.9407799 0.907402915,46.3186476 0.986390686,45.9317855 C1.06537846,45.5449235 1.1891161,44.9337057 1.26136108,44.5735238 C1.33360605,44.2133418 1.45421969,43.6239533 1.52939948,43.2637714 C1.60457442,42.9035894 1.73274096,42.2814571 1.81421727,41.8812549 C1.89568872,41.4810528 2.01953793,40.869835 2.08943505,40.5229932 C2.15933702,40.1761513 2.27041858,39.6413358 2.33628457,39.3345142 C2.40215056,39.0276925 2.48612025,38.6129376 2.52288063,38.4128365 C2.55964587,38.2127355 2.67860534,37.6233469 2.78723717,37.1030841 C2.89587386,36.5828214 3.01580352,35.9934328 3.05375238,35.7933317 C3.09170125,35.5932307 3.21216936,35.0038421 3.32145607,34.4835793 C3.43074763,33.9633166 3.55080827,33.373928 3.58825749,33.1738269 C3.62571156,32.9737259 3.74643677,32.3843373 3.85654329,31.8640745 C3.96664981,31.3438118 4.08548801,30.7653378 4.12062818,30.5785768 C4.15576835,30.3918158 4.25201575,29.9115733 4.3345059,29.5113712 C4.41700075,29.111169 4.57309898,28.3580614 4.6813864,27.8377986 C4.78967867,27.3175359 4.97490191,26.4116238 5.09299307,25.8246607 C5.21108422,25.2376976 5.35220277,24.539163 5.4065866,24.2723616 C5.46097528,24.0055601 5.55932313,23.5253176 5.62514062,23.2051559 C5.6909581,22.8849942 5.81047543,22.3065202 5.8907293,21.9196582 C5.97098801,21.5327961 6.10156548,20.8997491 6.18090737,20.5128871 C6.26024926,20.126025 6.38251707,19.5257204 6.45260338,19.1788785 C6.52269453,18.8320367 6.64231859,18.2535627 6.7184346,17.8933808 C6.79455062,17.5331989 6.9254822,16.9001519 7.00938882,16.4866097 C7.09329544,16.0730675 7.23385613,15.4400205 7.32174052,15.0798386 C7.40962975,14.7196567 7.5338816,14.2830726 7.59785573,14.1096517 C7.6618347,13.9362307 7.83846209,13.5602969 7.99036426,13.2742426 L8.26654739,12.7541441 L8.51762207,12.4253288 C8.65571363,12.2444802 8.90225754,11.9587048 9.0655012,11.7902721 C9.22874001,11.6218394 9.50419549,11.3683921 9.67761641,11.2270563 C9.85103733,11.0857209 10.1020732,10.8949787 10.2354739,10.8031859 C10.3688746,10.7113927 10.6308251,10.5506904 10.8175861,10.4460689 C11.0043471,10.3414478 11.2662976,10.2044443 11.3996983,10.1416174 C11.533099,10.0787905 11.8059641,9.96412703 12.0060651,9.88681041 C12.2061662,9.8094933 12.5881773,9.67989524 12.8549787,9.59881477 C13.1217801,9.51773431 13.6225955,9.39552179 13.9678996,9.32723179 C14.3132037,9.2589413 14.8589338,9.16773014 15.1806333,9.12453984 L15.7655396,9.04601243 L55.8706417,9.03074411 L95.9757453,9.01547628 L95.9757453,9.11188279 C95.9757453,9.16490641 95.9114025,9.50887213 95.8327592,9.87625186 C95.7541158,10.2436311 95.6227088,10.8716525 95.5407474,11.2718546 C95.4587812,11.6720568 95.3391426,12.2505307 95.2748823,12.5573524 C95.2106171,12.8641741 95.0889605,13.4535627 95.0045348,13.8671049 C94.9201043,14.2806471 94.790206,14.9136941 94.7158751,15.273876 C94.6415394,15.6340579 94.5212022,16.2234465 94.4484576,16.5836284 C94.3757081,16.9438103 94.2546385,17.5331989 94.1794151,17.8933808 C94.1041916,18.2535627 93.9875606,18.8211221 93.9202345,19.1546239 C93.8529132,19.4881256 93.7310432,20.0884303 93.6494165,20.4886324 C93.5677946,20.8888345 93.4366787,21.5218815 93.3580499,21.8954035 C93.2794211,22.2689255 93.1596467,22.8473995 93.0918791,23.1809012 C93.0241116,23.514403 92.9021542,24.1147062 92.8208623,24.5149083 C92.7395703,24.9151104 92.6087503,25.5481574 92.5301457,25.9216794 C92.451546,26.2952014 92.334396,26.8627607 92.2698106,27.1829224 C92.2052301,27.5030841 92.0837142,28.1033873 91.9997785,28.5169295 C91.9158427,28.9304717 91.7934925,29.5307749 91.7278884,29.8509366 C91.6622844,30.1710983 91.5450907,30.7386577 91.4674563,31.1121796 C91.3898268,31.4857016 91.2571246,32.1296632 91.172568,32.5432054 C91.0880113,32.9567476 90.9669708,33.5461362 90.9035885,33.8529578 C90.8402062,34.1597794 90.7215863,34.7382534 90.6399887,35.1384555 C90.5583863,35.5386577 90.4285607,36.1717047 90.3514793,36.5452266 C90.2744028,36.9187486 90.1535127,37.5081372 90.0828394,37.854979 C90.0121661,38.2018209 89.8893162,38.8021241 89.8098385,39.1889861 C89.7303608,39.5758482 89.6005546,40.2088952 89.5213728,40.5957572 C89.4421959,40.9826193 89.3235371,41.5610932 89.2576808,41.8812549 C89.1918246,42.2014166 89.0714438,42.7908052 88.9901663,43.1910073 C88.9088841,43.5912095 88.7766622,44.2218698 88.6963355,44.5924764 L88.5502884,45.2663052 L88.3762466,45.732446 C88.2805182,45.9888228 88.1366347,46.3295622 88.0564972,46.489643 C87.9763646,46.6497239 87.8131355,46.932155 87.6937686,47.1172764 C87.5744065,47.3023929 87.4080194,47.539589 87.3240206,47.6443789 C87.2400218,47.7491737 86.9872008,48.0197055 86.762195,48.2455601 L86.3530963,48.6562063 L85.9594187,48.9359937 C85.7428924,49.089875 85.5096643,49.2463614 85.4411254,49.2837378 C85.3725866,49.3211143 85.1117033,49.4542627 84.8613853,49.5796254 C84.6110723,49.7049881 84.2574682,49.8645257 84.0756018,49.9341511 C83.8937354,50.0037766 83.5335535,50.1223141 83.2751976,50.1975618 C83.0168416,50.2728095 82.7399697,50.3469123 82.6599293,50.3622316 C82.5798888,50.3775508 82.3020321,50.4350441 82.0424732,50.4899955 C81.7829142,50.5449469 81.2590132,50.6270393 80.8782488,50.6724246 L80.1859525,50.7549439 L40.1051036,50.7692347 Z M25.8450337,40.4017198 L26.8880535,40.4017198 L26.9174982,40.3249877 C26.9336931,40.2827846 26.9469429,40.1835684 26.9469429,40.104503 C26.9469429,40.0254377 26.9813229,39.7379858 27.0233427,39.4657222 C27.065363,39.1934538 27.1639757,38.5668537 27.2424822,38.0732711 C27.3209888,37.5796885 27.438542,36.8374955 27.5037119,36.4239533 C27.5688813,36.0104111 27.6484167,35.4810528 27.6804576,35.2476016 C27.7124985,35.0141503 27.7516087,34.8231448 27.7673684,34.8231448 C27.7831286,34.8231448 27.8505585,34.9262999 27.9172133,35.0523806 L28.0384032,35.2816212 L28.3073216,35.5525653 L28.5762404,35.8235094 L28.9072551,35.9560224 L29.2382693,36.0885354 L29.6327779,36.1396788 L30.0272865,36.1908173 L30.5280563,36.1600964 L31.0288265,36.1293754 L31.5710073,35.9890621 L32.1131885,35.8487488 L32.4042446,35.7158963 C32.5643254,35.6428266 32.8481051,35.4835171 33.0348661,35.361875 L33.3744315,35.1407015 L33.6910394,34.8242653 C33.8651734,34.6502284 34.110752,34.3711541 34.2367696,34.2041073 C34.3627867,34.0370605 34.4658919,33.8881853 34.4658919,33.8732832 C34.4658919,33.8583763 34.5278053,33.7549301 34.603477,33.6434071 C34.6791491,33.5318793 34.8340167,33.2223363 34.9476275,32.9555349 C35.0612388,32.6887335 35.2387937,32.2084909 35.3421943,31.8883292 L35.5301957,31.306217 L35.6273745,30.8019866 C35.6808226,30.5246587 35.7495812,30.0662453 35.7801712,29.7832903 L35.83579,29.2688244 L35.8036681,28.8322403 L35.7715462,28.3956561 L35.6703237,27.959072 L35.5691012,27.5224879 L35.4052453,27.1956125 L35.2413895,26.8687371 L34.92488,26.5332222 L34.6083701,26.1977024 L34.2339478,26.0041744 L33.859525,25.8106415 L33.4471956,25.7119201 L33.0348661,25.6131987 L32.6225366,25.5829289 L32.2102072,25.5526639 L31.7508891,25.605447 L31.2915711,25.6582251 L30.9166748,25.7539486 L30.5417781,25.8496673 L30.2160975,26.0004101 C30.0369729,26.0833174 29.7763307,26.2241303 29.636893,26.3133293 C29.4974548,26.4025283 29.3536173,26.5051547 29.3172532,26.5413863 C29.2808892,26.5776228 29.1938304,26.6447452 29.1237887,26.6905429 L28.9964405,26.7738189 L29.0854945,26.3477467 C29.1344744,26.1134077 29.175409,25.8943929 29.1764607,25.8610427 L29.1783719,25.800406 L28.2890268,25.800406 L27.3996811,25.800406 L27.2437347,26.7827203 C27.1579639,27.3229932 27.0225413,28.1579603 26.9427958,28.6382029 C26.8630499,29.1184454 26.7427952,29.8388093 26.6755637,30.2390114 C26.6083316,30.6392135 26.4884088,31.3486627 26.4090683,31.8155652 C26.3297279,32.2824677 26.1985906,33.0246607 26.1176518,33.464883 C26.0367135,33.9051054 25.9181397,34.549067 25.8541544,34.8959088 C25.7901696,35.2427506 25.6697422,35.8976268 25.5865385,36.3511892 C25.5033353,36.8047517 25.3696246,37.5251155 25.2894037,37.9519977 C25.2091833,38.37888 25.0786359,39.0555854 24.9992989,39.4557875 C24.9199618,39.8559897 24.8431167,40.2325435 24.8285314,40.2925738 L24.8020128,40.4017198 L25.8450327,40.4017198 L25.8450337,40.4017198 Z M30.335269,34.7931417 L29.9302678,34.8174886 L29.6655363,34.7707595 L29.4008048,34.7240256 L29.1319335,34.6012679 L28.8630622,34.4785101 L28.6752179,34.2991322 L28.4873742,34.1197592 L28.3789505,33.8772125 C28.3193175,33.7438118 28.2427207,33.5171955 28.208736,33.3736224 L28.1469453,33.1125839 L28.1717021,32.6944915 L28.1964588,32.276404 L28.3214499,31.6215278 C28.390195,31.2613459 28.5136294,30.5846405 28.5957485,30.117738 C28.6778675,29.6508355 28.8021994,28.9667179 28.8720417,28.5974744 L28.9990275,27.9261245 L29.2771074,27.6947058 C29.4300511,27.5674269 29.6723237,27.396839 29.8154913,27.3156246 L30.0757959,27.1679622 L30.4153613,27.0628521 L30.7549267,26.9577421 L31.1915109,26.9321097 L31.628095,26.9064774 L31.9835836,26.9822441 L32.3390723,27.0580109 L32.5899505,27.1735504 L32.8408287,27.28909 L33.0511997,27.5005956 L33.2615707,27.7120964 L33.3750646,27.936064 C33.4374864,28.0592487 33.5251612,28.3003644 33.569898,28.4718837 L33.651237,28.7837309 L33.6263217,29.7054085 L33.6014058,30.6270862 L33.4768226,31.1718655 C33.4083017,31.4714981 33.2778645,31.9299114 33.1869618,32.1905619 L33.0216846,32.6644788 L32.819276,33.0481101 C32.7079514,33.2591112 32.5362836,33.5442443 32.4377922,33.6817441 C32.3393007,33.819239 32.1823143,33.9973507 32.0889338,34.0775415 C31.9955533,34.1577323 31.8391669,34.2830611 31.7414085,34.3560434 L31.5636654,34.4887359 L31.1519675,34.628763 L30.7402696,34.7687949 L30.335269,34.7931417 Z M40.408287,36.1267171 L40.9418898,36.1328147 L41.4754927,36.0841453 C41.7689742,36.0573778 42.2492168,36.0016503 42.5426983,35.9603106 C42.8361799,35.9189661 43.3431685,35.8264248 43.6693396,35.7546601 L44.2623775,35.6241796 L44.2919144,35.4055723 C44.3081597,35.285337 44.3747616,34.9274059 44.4399188,34.6101693 L44.5583859,34.0333738 L44.5322472,34.0072369 L44.5061089,33.9810953 L44.3248076,34.0686546 C44.2250923,34.1168099 43.9145131,34.23168 43.6346316,34.3239254 L43.1257564,34.4916367 L42.5916806,34.5950926 L42.0576049,34.6985485 L41.2086913,34.7001978 L40.3597777,34.7018472 L40.0687216,34.6088935 C39.9086407,34.5577695 39.6731928,34.464229 39.5455046,34.401031 L39.3133432,34.2861172 L39.1217318,34.1130116 L38.9301203,33.9399011 L38.7806204,33.6786007 L38.6311199,33.4173002 L38.5373891,33.089542 L38.4436584,32.7617837 L38.442989,32.1552616 L38.4423196,31.5487395 L38.5255339,31.0076614 L38.6087479,30.4665784 L39.3387354,30.4324764 L40.0687235,30.3983694 L42.7671142,30.415697 L45.4655049,30.4330245 L45.5469793,30.08741 C45.5917898,29.8973212 45.6602991,29.5043955 45.6992215,29.2142417 L45.7699899,28.686688 L45.7714839,28.2429148 L45.772978,27.7991415 L45.6961455,27.467847 L45.619313,27.1365524 L45.4922738,26.9171785 C45.4224019,26.7965261 45.2992886,26.6216693 45.2186889,26.5286138 C45.1380891,26.4355583 44.9941755,26.3043599 44.8988803,26.2370629 C44.8035856,26.1697659 44.616471,26.0566712 44.4830703,25.9857505 L44.2405236,25.8567933 L43.8167367,25.7546569 L43.3929498,25.6525204 L42.8708044,25.6025995 L42.348659,25.5526736 L41.8635655,25.5842629 L41.378472,25.6158522 L40.7963599,25.7276274 L40.2142477,25.8394075 L39.8504276,25.9848725 C39.6503265,26.064879 39.3447176,26.2107757 39.1712967,26.3090896 C38.9978758,26.4074035 38.7577545,26.5674407 38.6376939,26.6647262 C38.5176332,26.7620068 38.3097605,26.9511399 38.1757549,27.085016 C38.0417488,27.2188921 37.843527,27.4594015 37.7352618,27.6194823 C37.6269967,27.7795632 37.461024,28.0633429 37.3664341,28.2501039 C37.2718438,28.4368648 37.1485893,28.6988153 37.0925348,28.832216 C37.0364803,28.9656167 36.934618,29.2384818 36.8661737,29.4385829 C36.7977299,29.6386839 36.6901454,30.0206951 36.6270968,30.2874965 C36.5640483,30.5542979 36.4776536,30.993487 36.435109,31.2634706 L36.3577564,31.7543755 L36.3584744,32.4762286 L36.3591923,33.1980816 L36.4329222,33.5133924 C36.4734736,33.6868133 36.551008,33.9487638 36.6052206,34.0955046 C36.6594337,34.2422453 36.7596821,34.4605374 36.8279959,34.580598 C36.8963092,34.7006587 37.0422015,34.8939636 37.1522013,35.0101677 C37.2622006,35.1263719 37.4613461,35.3026985 37.5947468,35.402002 C37.7281475,35.5013055 37.9656327,35.6409736 38.1224921,35.7123842 L38.4076902,35.8422146 L38.8053402,35.9383407 C39.024048,35.9912111 39.3541221,36.0538512 39.5388384,36.077548 C39.7235548,36.10124 40.1148074,36.1233651 40.408289,36.1267171 L40.408287,36.1267171 Z M41.3220125,29.2930791 C39.9790389,29.2930791 38.8802425,29.2834645 38.8802425,29.2717156 C38.8802425,29.2599666 38.9375423,29.0907903 39.0075752,28.8957681 C39.0776082,28.700746 39.2006056,28.4104709 39.2809026,28.2507102 L39.4268963,27.9602362 L39.747809,27.6410787 L40.0687216,27.3219211 L40.3840323,27.1711492 C40.5574533,27.0882225 40.7866599,26.997932 40.8933805,26.9705 C41.0001011,26.943068 41.30571,26.9066763 41.5725114,26.8896301 L42.0576049,26.8586278 L42.4301241,26.9065016 L42.802643,26.9543755 L43.0733596,27.0783169 L43.3440766,27.2022534 L43.4925807,27.3623682 C43.5742584,27.4504321 43.6715919,27.5801218 43.7088781,27.6505623 L43.7766709,27.7786366 L43.8214397,28.0628917 L43.8662085,28.3471468 L43.8149952,28.8201129 L43.763782,29.2930791 L41.3220125,29.2930791 Z M55.8345556,36.126979 L56.3684592,36.1328972 L56.9745253,36.0610694 C57.307867,36.0215634 57.7515869,35.9560952 57.9605748,35.915585 C58.1695677,35.8750748 58.5079204,35.794656 58.7124697,35.7368814 C58.917024,35.6791019 59.1020871,35.6166364 59.1237174,35.5980622 C59.1453478,35.579488 59.2031515,35.3593332 59.2521653,35.108826 C59.3011792,34.8583189 59.3629219,34.5223868 59.3893692,34.362306 C59.4158165,34.2022251 59.4294864,34.0626783 59.4197506,34.05221 C59.4100099,34.0417368 59.3742294,34.0552661 59.3402341,34.0822615 C59.3062387,34.109257 59.0682227,34.2094239 58.8113124,34.3048418 L58.3442062,34.4783355 L57.6790314,34.6072103 L57.0138615,34.7360802 L56.4483153,34.7167832 L55.8827691,34.6974813 L55.5615402,34.5860796 L55.2403064,34.4746779 L54.9920841,34.2575355 L54.7438569,34.0403979 L54.5792016,33.7405131 L54.4145463,33.4406284 L54.3361261,33.0394415 L54.2577059,32.6382546 L54.258191,32.1177639 L54.2586761,31.5972731 L54.3539727,30.9666516 L54.4492742,30.3360301 L54.5501057,29.9964646 C54.6055664,29.8097036 54.6683181,29.5914116 54.6895555,29.5113712 C54.7107881,29.4313307 54.7997542,29.2021241 54.8872505,29.002023 C54.9747468,28.8019219 55.1308305,28.4926554 55.2341069,28.314762 L55.4218721,27.991321 L55.6524903,27.7523737 L55.8831038,27.5134263 L56.1273241,27.361951 L56.3715493,27.2104758 L56.6851816,27.1138742 C56.8576808,27.0607468 57.1625378,26.9917617 57.3626389,26.960575 L57.726459,26.9038821 L58.2600618,26.9306593 L58.7936647,26.9574364 L59.4242862,27.0836626 L60.0549077,27.2098888 L60.3114009,27.3055492 C60.4524709,27.3581673 60.5740596,27.4012145 60.5815883,27.4012145 C60.5891218,27.4012145 60.622957,27.2211236 60.6567729,27.0010124 C60.6905936,26.7809012 60.7507889,26.4187644 60.7905374,26.1962714 C60.830286,25.9737736 60.8532358,25.7821568 60.8415353,25.7704564 C60.82983,25.7587559 60.6402749,25.7286558 60.4202995,25.7035668 C60.2003194,25.6784778 59.6024465,25.6339316 59.0916916,25.6045738 L58.1630432,25.5511989 L57.508167,25.6014546 L56.8532908,25.6517103 L56.3681973,25.7536479 L55.8831038,25.8555903 L55.5706987,25.9805406 C55.3988786,26.0492687 55.1472073,26.1732828 55.0114345,26.2561319 C54.8756616,26.3389859 54.7028325,26.4504313 54.6273714,26.5037916 C54.5519054,26.5571519 54.3229655,26.7653394 54.1186102,26.9664349 L53.7470529,27.3320596 L53.5396511,27.6359027 C53.4255814,27.8030126 53.2282502,28.1514698 53.1011412,28.4102478 L52.8700329,28.8807496 L52.6929011,29.3900978 C52.5954749,29.6702393 52.4594547,30.1286526 52.3906248,30.4087941 L52.2654852,30.9181423 L52.220061,31.3789811 L52.1746417,31.8398199 L52.1751268,32.4461867 L52.1756119,33.0525536 L52.2214242,33.405299 L52.2672364,33.7580493 L52.4125364,34.1209089 L52.5578316,34.4837685 L52.7256497,34.7461119 L52.893463,35.0084505 L53.1603226,35.2710801 L53.4271822,35.5337097 L53.7094484,35.6828954 L53.9917146,35.832081 L54.362588,35.9350906 C54.5665649,35.9917447 54.8612592,36.0567666 55.0174642,36.0795806 C55.1736643,36.1023994 55.5417241,36.1237289 55.8353657,36.126979 L55.8345556,36.126979 Z M63.8140475,36.1090597 L64.4689237,36.0902963 L64.8812532,35.9847642 L65.2935826,35.8792272 L65.560384,35.7530932 C65.7071248,35.68372 65.9472461,35.5467733 66.0939869,35.4487698 C66.2407276,35.3507664 66.467863,35.1644517 66.5987266,35.0347377 C66.7295951,34.9050189 66.9236616,34.6837047 67.0299844,34.5429305 C67.1363072,34.4021516 67.2297071,34.2933742 67.2375365,34.3012036 C67.2453611,34.309033 67.2208978,34.5333596 67.1831673,34.7997099 C67.1454415,35.0660602 67.1141433,35.4204161 67.1136243,35.587167 L67.1127026,35.8903504 L68.0029995,35.8903504 L68.8932964,35.8903504 L68.920515,35.1990922 L68.9477288,34.507834 L69.074765,33.6104111 C69.1446379,33.1168285 69.25749,32.38555 69.3255487,31.9853479 C69.3936024,31.5851458 69.5119022,30.9084404 69.5884354,30.4815581 C69.6649686,30.0546759 69.786208,29.3888851 69.8578611,29.002023 L69.9881378,28.2986375 L69.9925037,27.6910676 L69.9968695,27.0835025 L69.8594862,26.8027013 L69.7221077,26.521905 L69.5358124,26.3430655 L69.3495171,26.1642261 L69.0436608,26.0092388 L68.7378045,25.8542563 L68.2819671,25.7528669 L67.8261344,25.6514726 L67.198535,25.6037152 L66.5709356,25.5559529 L65.7625031,25.6059709 C65.3178664,25.6334805 64.6921249,25.6878013 64.3719632,25.7266815 L63.789851,25.797379 L63.393127,25.7988828 L62.996403,25.8003866 L62.9386818,26.0793154 C62.9069324,26.2327262 62.8187084,26.597206 62.7426312,26.8892711 C62.6665492,27.1813313 62.6113552,27.4273465 62.6199753,27.4359666 C62.6285955,27.4445867 62.8407705,27.3964315 63.0914765,27.328955 C63.3421825,27.2614736 63.8747424,27.1505036 64.2749445,27.0823529 L65.0025847,26.9584406 L65.6574609,26.93145 L66.3123371,26.9044594 L66.7341647,26.9784022 L67.1559923,27.0523401 L67.4375503,27.1913097 L67.7191082,27.3302744 L67.8767636,27.5652537 L68.034419,27.800233 L68.0321876,28.1706989 L68.0299561,28.5411648 L67.9463842,28.9477022 L67.8628123,29.3542445 L66.1173732,29.360541 L64.371939,29.3668376 L63.8006832,29.5234694 C63.4864881,29.6096171 63.1385791,29.7239925 63.027546,29.7776341 C62.9165178,29.8312806 62.8054557,29.8751719 62.780745,29.8751719 C62.7560344,29.8751719 62.5691278,29.9788169 62.3653983,30.1054894 L61.9949809,30.3358069 L61.7032554,30.6269649 C61.5428059,30.787104 61.3378199,31.0272689 61.2477283,31.1606696 C61.1576416,31.2940703 61.0112695,31.5727517 60.9224635,31.7799593 L60.7609904,32.1567023 L60.6868827,32.5803636 L60.6127749,33.0040248 L60.6127749,33.4484675 L60.6127749,33.892915 L60.6835743,34.262954 L60.7543786,34.6329978 L60.8857322,34.8743464 C60.957982,35.0070874 61.0905629,35.2015274 61.1803634,35.3064434 L61.3436362,35.4971919 L61.6337803,35.6734409 L61.9239196,35.8496899 L62.2560243,35.9436719 C62.4386862,35.9953635 62.7166933,36.0579405 62.8738248,36.0827288 L63.1595157,36.1278037 L63.8143919,36.1090403 L63.8140475,36.1090597 Z M64.4204144,34.7526219 L64.0323396,34.7728551 L63.7753128,34.7073966 C63.6339468,34.671393 63.4194434,34.5911003 63.2986357,34.5289695 L63.0789853,34.4159961 L62.9591042,34.273529 C62.8931703,34.195167 62.7924455,34.0411983 62.7352724,33.9313683 L62.6313265,33.7316844 L62.6109429,33.2653641 L62.5905641,32.7990486 L62.6727923,32.5161857 C62.7180224,32.3606114 62.8241269,32.0906569 62.9085866,31.9162803 L63.0621526,31.5992378 L63.3562211,31.3071969 L63.6502896,31.0151609 L63.962588,30.8647965 L64.2748863,30.7144321 L64.6629611,30.6222498 L65.0510359,30.5300675 L66.2637696,30.5300675 L67.4765033,30.5300675 L67.5532305,30.5617926 L67.6299529,30.5935177 L67.5653821,30.974122 C67.5298636,31.1834544 67.4451614,31.5621039 67.3771464,31.8155652 C67.3091315,32.0690265 67.1890611,32.4416171 67.1103208,32.643547 C67.0315804,32.8454769 66.9671551,33.024001 66.9671551,33.040271 C66.9671551,33.056541 66.8874349,33.2036796 66.789999,33.3672434 L66.6128477,33.6646348 L66.3219517,33.9528337 C66.161963,34.1113429 66.0134419,34.2410326 65.9919135,34.2410326 C65.970385,34.2410326 65.8723137,34.2956299 65.7739852,34.3623593 L65.5951992,34.4836812 L65.2018466,34.6080349 L64.8084891,34.7323886 L64.4204144,34.7526219 Z M80.2102072,36.1264018 L80.671046,36.1322083 L81.1076301,36.0613507 C81.3477514,36.0223783 81.6533603,35.9595975 81.786761,35.9218427 C81.9201617,35.884083 82.160283,35.7860844 82.3203638,35.7040697 L82.6114199,35.554952 L82.8618058,35.3345643 L83.1121916,35.1141766 L83.3758933,34.7624935 C83.5209314,34.5690722 83.6522656,34.3780715 83.6677546,34.3380513 L83.6959094,34.2652873 L83.6714219,34.507834 C83.6579509,34.6412347 83.627749,34.8595268 83.6043044,34.9929275 C83.5808647,35.1263282 83.5472526,35.3828214 83.5296146,35.5629123 L83.4975402,35.8903504 L84.4491238,35.8903504 L85.4007074,35.8903504 L85.4007074,35.5629123 L85.4007074,35.2354742 L85.5456825,33.9984859 C85.6254221,33.3181423 85.7433338,32.4122302 85.8077106,31.9853479 C85.8720873,31.5584656 85.9714539,30.9472479 86.02853,30.6270862 C86.0856012,30.3069245 86.1866801,29.7284505 86.2531428,29.3415884 C86.3196006,28.9547264 86.4396564,28.278021 86.5199248,27.8377986 C86.6001932,27.3975763 86.7286605,26.6990417 86.8054023,26.2854995 C86.882149,25.8719573 87.0014286,25.2279957 87.0704671,24.8544737 C87.1395105,24.4809518 87.2632044,23.8260756 87.3453405,23.3991933 C87.4274814,22.972311 87.5474692,22.3720078 87.611977,22.0651862 C87.6764895,21.7583646 87.7291804,21.4909568 87.7290688,21.4709467 L87.729069,21.4345647 L86.6908815,21.4345647 L85.6526941,21.4345647 L85.6220313,21.7377481 C85.6051695,21.904499 85.5256966,22.4556865 85.4454185,22.9626092 C85.3651452,23.4695318 85.2342816,24.2772125 85.1546147,24.757455 C85.0749478,25.2376976 84.9981429,25.7033922 84.9839394,25.7923292 L84.9581178,25.95404 L84.8761855,25.9192006 C84.8311252,25.9000345 84.5868758,25.8322864 84.3334145,25.7686421 L83.8725756,25.6529279 L83.2419541,25.603817 L82.6113326,25.5547013 L82.0777298,25.6044234 L81.5441269,25.6541455 L81.0590335,25.7767626 L80.57394,25.8993796 L80.1131012,26.1241477 L79.6522624,26.3489158 L79.3126969,26.6003106 L78.9731315,26.8517103 L78.6798779,27.1661285 C78.5185892,27.3390595 78.2855842,27.62509 78.1620891,27.8017513 L77.9375491,28.1229608 L77.6738717,28.6716355 C77.528853,28.9734073 77.3523711,29.3731195 77.281693,29.5598805 C77.2110149,29.7466415 77.0863652,30.1606397 77.00469,30.4798748 L76.8561981,31.0602989 L76.7830363,31.8138819 L76.7098793,32.5674601 L76.7648162,33.1738269 L76.8197482,33.7801938 L76.8846973,33.9984859 C76.9204148,34.1185465 76.9957352,34.3324533 77.0520691,34.4738387 L77.1544966,34.7308994 L77.3412382,34.9836816 L77.5279846,35.2364687 L77.7412075,35.4111169 L77.9544352,35.5857651 L78.2454913,35.7302841 C78.4055721,35.8097667 78.6741102,35.9124901 78.8422436,35.9585546 C79.010377,36.0046191 79.283242,36.0599197 79.4486104,36.0814482 C79.6139788,36.1029766 79.9566585,36.123205 80.2101199,36.1264018 L80.2102072,36.1264018 Z M81.0373207,34.7501043 L80.671046,34.7695565 L80.4238278,34.7250589 C80.2878561,34.7005859 80.0702771,34.6349819 79.9403206,34.5792737 L79.7040315,34.4779862 L79.5052063,34.3150676 L79.306381,34.1521441 L79.1586264,33.8691502 L79.0108669,33.5861564 L78.9435359,33.2708456 L78.8762001,32.9555349 L78.8819097,32.3249134 L78.8876144,31.6942918 L78.9658114,31.1364343 L79.0440085,30.5785768 L79.1655438,30.190502 C79.2323848,29.9770609 79.2873993,29.775684 79.2878019,29.7430033 C79.288287,29.7103225 79.3542015,29.5356889 79.4344651,29.3549285 C79.5147335,29.1741681 79.6488327,28.8953024 79.7324726,28.7352216 C79.8161075,28.5751407 79.9724386,28.3255844 80.0798723,28.180653 C80.1873011,28.0357216 80.3786898,27.8174296 80.5051731,27.6955595 C80.6316564,27.5736895 80.8328635,27.4138415 80.9522935,27.3403401 L81.1694456,27.2067066 L81.5508649,27.0747223 L81.932289,26.9427381 L82.7326933,26.942253 L83.5330975,26.942253 L83.9939363,27.0701043 C84.2473977,27.1404186 84.5165178,27.2219676 84.5919741,27.2513206 L84.729178,27.3046858 L84.7023814,27.4378439 C84.6876443,27.5110785 84.6299909,27.8329477 84.5742634,28.1531094 C84.5185358,28.4732711 84.4087301,29.0844889 84.3302419,29.5113712 C84.2517538,29.9382534 84.1311693,30.582215 84.0622666,30.9423969 C83.9933688,31.3025788 83.8935705,31.7609922 83.8404916,31.9610932 C83.7874126,32.1611943 83.7125336,32.4383525 83.6740851,32.5770019 C83.6356414,32.7156513 83.5440946,32.9557726 83.4706514,33.1106047 C83.3972083,33.2654368 83.2686925,33.4903504 83.1850624,33.6104111 C83.1014371,33.7304717 82.9599838,33.896786 82.8707266,33.9799941 C82.7814694,34.063207 82.588378,34.2110781 82.4416372,34.3086013 L82.1748358,34.4859126 L81.7892156,34.6082823 L81.4035954,34.7306569 L81.0373207,34.7501091 L81.0373207,34.7501043 Z M9.64353374,35.8903504 L10.8221848,35.8903504 L10.9067511,35.3688749 C10.953257,35.0820634 11.0440956,34.530876 11.1086082,34.1440139 C11.1731208,33.7571519 11.2931911,33.036788 11.3754339,32.5432054 C11.4576718,32.0496228 11.5809583,31.3183444 11.6494001,30.9181423 C11.717842,30.5179401 11.8265854,29.897132 11.8910495,29.5385655 C11.9555184,29.1800038 12.0204967,28.8743949 12.0354521,28.8594346 L12.0626416,28.8322403 L15.2319174,28.8322403 L18.4011932,28.8322403 L18.4363818,28.8674193 L18.4715754,28.9025982 L18.4166191,29.18273 C18.386393,29.3368006 18.2969854,29.8121291 18.2179394,30.2390114 C18.1388886,30.6658936 18.0059972,31.3862575 17.9226242,31.8398199 C17.8392512,32.2933823 17.7186957,32.9373439 17.6547265,33.2708456 C17.5907523,33.6043474 17.4612954,34.302882 17.3670466,34.8231448 C17.272793,35.3434075 17.1958765,35.7963636 17.1961191,35.8297138 L17.1966042,35.8903504 L18.3801013,35.8903504 L19.5636033,35.8903504 L19.6159691,35.587167 C19.644774,35.4204161 19.6911149,35.1202645 19.7189545,34.9201635 C19.7467891,34.7200624 19.813897,34.2943929 19.868077,33.9742312 C19.922262,33.6540695 20.0305203,33.0210225 20.1086495,32.5674601 C20.1867786,32.1138977 20.317555,31.3389608 20.3992641,30.8453782 C20.4809684,30.3517956 20.6021821,29.6314318 20.6686239,29.2445697 C20.7350652,28.8577077 20.8534562,28.2028315 20.9317153,27.7892893 C21.009974,27.3757471 21.1403264,26.6772125 21.2213874,26.2369902 C21.302448,25.7967678 21.4238878,25.130977 21.4912537,24.757455 C21.5586201,24.3839331 21.6814506,23.7072277 21.7642114,23.2536652 C21.8469722,22.8001028 21.9514769,22.2707446 21.9964436,22.0773136 L22.0782018,21.7256208 L20.8798986,21.7256208 L19.6815974,21.7256208 L19.649004,21.9560402 C19.6310798,22.0827709 19.5731887,22.4374955 19.520362,22.7443171 C19.4675305,23.0511387 19.3714383,23.5968689 19.3068142,23.9570508 C19.24219,24.3172327 19.124094,25.0048527 19.0443786,25.4850953 C18.9646584,25.9653378 18.8630701,26.6010625 18.818621,26.8978185 L18.7377995,27.4373782 L16.978739,27.4729792 L15.2196736,27.5085803 L13.7462895,27.4736147 C12.9359263,27.4543856 12.2684134,27.4348315 12.2629221,27.43016 C12.2574309,27.4255031 12.2850327,27.2369813 12.3242573,27.011243 C12.3634772,26.7855048 12.4376819,26.3934328 12.4891552,26.1399715 C12.5406284,25.8865101 12.638205,25.3844384 12.705992,25.0242565 C12.7737741,24.6640745 12.8505595,24.2165758 12.8766187,24.0298148 C12.902678,23.8430538 12.9572946,23.5319876 12.9979891,23.3385566 C13.0386788,23.1451256 13.1159056,22.737681 13.1696006,22.4331296 C13.2232956,22.1285734 13.2805027,21.8447937 13.2967291,21.8025081 L13.3262325,21.7256208 L12.1376031,21.7256208 L10.9489737,21.7256208 L10.8728431,22.1500776 C10.830965,22.3835288 10.7751356,22.7164242 10.7487707,22.8898451 C10.7224059,23.0632661 10.6338715,23.6199108 10.5520265,24.1268335 C10.4701864,24.6337562 10.3493642,25.3868638 10.2835418,25.800406 C10.2177146,26.2139482 10.0978383,26.9670558 10.0171527,27.4739785 C9.93646715,27.9809012 9.80333324,28.7667527 9.72130393,29.2203151 C9.63927462,29.6738775 9.52051404,30.3178391 9.45739367,30.6513408 C9.39426846,30.9848426 9.27397983,31.6178896 9.19007806,32.0581119 C9.10618114,32.4983343 8.98378235,33.1204667 8.91808614,33.4406284 C8.85238508,33.7607901 8.77975689,34.1318866 8.75668099,34.2652873 C8.73360994,34.398688 8.65852232,34.7834399 8.58982824,35.1202936 C8.5211293,35.4571474 8.46492152,35.7682136 8.46492152,35.8115519 L8.46492152,35.8903504 L9.64357255,35.8903504 L9.64353374,35.8903504 Z M22.6915273,35.8903504 L23.7349459,35.8903504 L23.7643906,35.8136184 C23.7805854,35.7714152 23.7938353,35.6607169 23.7938353,35.5676177 C23.7938353,35.4745186 23.859448,34.9906039 23.9396413,34.4922528 C24.0198345,33.9938969 24.1523368,33.1823161 24.2340906,32.6887335 C24.3158444,32.1951508 24.4365793,31.474787 24.5023905,31.087925 C24.5682016,30.7010629 24.6852406,30.0571013 24.7624777,29.6568992 C24.8397148,29.2566971 24.9582823,28.6345647 25.0259611,28.2743828 C25.0936403,27.9142009 25.2267316,27.2289481 25.3217201,26.7515967 C25.4167087,26.2742453 25.506273,25.8645208 25.5207525,25.8410908 L25.5470791,25.7984948 L24.491909,25.8115777 L23.436739,25.8246607 L23.3488605,26.4552822 C23.3005277,26.8021241 23.1948564,27.4897441 23.1140355,27.9833267 C23.033215,28.4769093 22.9109656,29.2300169 22.8423715,29.6568992 C22.7737768,30.0837815 22.6541528,30.7714015 22.5765397,31.1849437 C22.4989272,31.5984859 22.3799905,32.2315329 22.3122356,32.5917148 C22.2444811,32.9518967 22.1229041,33.5849437 22.0420642,33.9984859 C21.9612244,34.4120281 21.8527497,34.9577582 21.8010092,35.2112196 C21.7492681,35.4646809 21.6936992,35.7211741 21.6775218,35.7812044 L21.6481087,35.8903504 L22.6915273,35.8903504 Z M47.0953133,35.8903504 L48.1309995,35.8903504 L48.1621085,35.4521218 C48.1792129,35.2110983 48.2378268,34.7253984 48.2923513,34.3727888 C48.3468806,34.0201792 48.4585201,33.3169295 48.5404426,32.8100068 C48.6223701,32.3030841 48.7746264,31.4593222 48.8787905,30.9349847 C48.9829546,30.4106423 49.1007062,29.8894579 49.1404596,29.7767852 C49.1802082,29.6641174 49.2127337,29.5420291 49.2127337,29.5054773 C49.2127337,29.4689206 49.2906009,29.2697461 49.3857763,29.0628634 C49.4809467,28.8559808 49.6583115,28.5391856 49.7799196,28.3588812 L50.0010203,28.0310453 L50.2969904,27.7570354 L50.5929556,27.4830207 L50.9579206,27.3087169 L51.3228903,27.1344131 L51.8807479,27.1373237 L52.4386054,27.1402342 L52.7128724,27.2221956 C52.8637219,27.2672802 53.0001544,27.3041619 53.0160558,27.3041619 C53.031962,27.3041619 53.0449722,27.2525916 53.0449722,27.1895585 C53.0449722,27.1265303 53.0995452,26.8070041 53.1662456,26.4795029 C53.2329459,26.1520066 53.2875189,25.8702352 53.2875189,25.8533491 C53.2875189,25.836463 53.1292572,25.7745214 52.9358262,25.7157039 C52.7423951,25.6568863 52.4749874,25.5952794 52.3415867,25.5788056 L52.0990399,25.5488511 L51.7837292,25.6046223 C51.6103082,25.6352948 51.3524422,25.703009 51.2106931,25.7550983 C51.0689488,25.8071876 50.8349057,25.9253273 50.6906001,26.0176406 C50.5462945,26.109949 50.3218223,26.2898362 50.1917736,26.4173819 C50.0617249,26.5449275 49.8429866,26.8020901 49.7056857,26.9888511 C49.56838,27.1756121 49.4247923,27.3720749 49.3865912,27.4254352 L49.3171404,27.5224539 L49.3593096,27.3284165 C49.3825067,27.221696 49.4471066,26.8724287 49.502873,26.552267 C49.5586393,26.2321053 49.6158755,25.9319537 49.6300596,25.8852634 L49.6558569,25.8003721 L48.7309098,25.8003721 L47.8059626,25.8003721 L47.8059626,25.9173039 C47.8059626,25.9816175 47.7513712,26.369086 47.6846485,26.7783448 C47.6179258,27.1876084 47.5079008,27.8717212 47.4401483,28.2986035 C47.3723958,28.7254858 47.2521488,29.4676788 47.1729326,29.9479213 C47.0937168,30.4281639 46.973436,31.1157839 46.9056422,31.4759658 C46.8378484,31.8361477 46.7174681,32.4691947 46.6381301,32.8827369 C46.5587921,33.2962791 46.427065,33.9729845 46.3454024,34.3865267 C46.2637403,34.8000689 46.1660333,35.2884464 46.128276,35.4718118 C46.0905183,35.6551771 46.0596261,35.8243535 46.0596261,35.8477592 L46.0596261,35.8903504 L47.0953133,35.8903165 L47.0953133,35.8903504 Z M71.6807988,35.8903504 L72.7397676,35.8903504 L72.7397676,35.566274 L72.7397676,35.2421928 L72.8617977,34.4384317 C72.9289201,33.9963563 73.0396475,33.296313 73.1078662,32.8827709 C73.1760849,32.4692287 73.2611169,31.9453277 73.2968198,31.7185465 C73.3325275,31.4917653 73.4271499,31.0006081 73.5070981,30.6270862 C73.5870464,30.2535642 73.6869029,29.8497239 73.729009,29.7296632 C73.7711103,29.6096026 73.8058769,29.4836384 73.806265,29.4497449 C73.8067501,29.4158514 73.8969241,29.1978843 74.0068657,28.965379 L74.206763,28.5426395 L74.4704744,28.1922516 L74.7341858,27.8418637 L75.022797,27.6249057 C75.1815341,27.5055824 75.4367854,27.3472285 75.5900168,27.273014 L75.8686205,27.1380756 L76.4749874,27.1422474 L77.0813542,27.1464192 L77.3200542,27.2230736 L77.5587541,27.2997233 L77.5989829,27.2748574 L77.6392117,27.2499963 L77.6412491,27.095203 C77.6423648,27.0100691 77.6942844,26.6932885 77.7566335,26.391245 L77.8699998,25.8420756 L77.7424833,25.7921546 C77.6723533,25.7646983 77.5058256,25.7078647 77.3724249,25.6658556 L77.1298781,25.5894777 L76.693294,25.5905934 L76.2567099,25.5917091 L75.9009132,25.7168875 L75.5451165,25.842061 L75.2779658,26.0031508 L75.0108152,26.1642407 L74.6634882,26.5280608 L74.3161661,26.8918809 L74.1295555,27.1741131 C74.0269195,27.3293382 73.9365562,27.4493988 73.9287511,27.4409146 C73.9209411,27.4324254 73.9767268,27.1089602 74.0527167,26.7220982 C74.1287066,26.3352361 74.1918221,25.9695969 74.1929718,25.9095666 L74.1950577,25.8004254 L73.2976348,25.8004254 L72.4002118,25.8004254 L72.4002118,25.8313356 C72.4002118,25.8483333 72.3554717,26.1593995 72.3007871,26.5225938 C72.2461073,26.8857833 72.1363113,27.5867822 72.0568044,28.0803648 C71.9772928,28.5739474 71.8468317,29.3707135 71.7668932,29.850956 C71.6869498,30.3311985 71.566438,31.0188186 71.4990876,31.3790005 C71.4317372,31.7391824 71.3121132,32.3722294 71.2332612,32.7857716 C71.1544093,33.1993138 71.0248457,33.8651046 70.9453437,34.2653067 C70.8658417,34.6655088 70.7605279,35.1948671 70.7113152,35.4416584 L70.6218349,35.8903698 L71.6808085,35.8903698 L71.6807988,35.8903504 Z M24.7432534,24.0530023 L25.0377954,24.0540695 L25.2719166,23.9742959 L25.5060372,23.8945222 L25.7132454,23.6843409 L25.9204531,23.4741548 L26.0295957,23.1941297 L26.1387384,22.9140998 L26.1426385,22.5017703 L26.1465387,22.0894409 L26.04952,21.9284335 L25.9525013,21.767431 L25.7835912,21.6628497 L25.6146812,21.5582684 L25.2499884,21.5582684 L24.8852956,21.5582635 L24.6370121,21.6694227 L24.3887287,21.7805819 L24.2446055,21.9350114 L24.1004818,22.0894409 L23.9872988,22.3562423 L23.8741153,22.6230437 L23.8527203,23.038633 L23.8313252,23.4542223 L23.9366997,23.6607751 L24.0420736,23.8673231 L24.2453928,23.9596315 L24.4487115,24.0519399 L24.7432534,24.0530071 L24.7432534,24.0530023 Z" id="path2997" fill="#B3131B" fill-rule="nonzero"></path>
        </g>
    </g>
</svg>