<?xml version="1.0" encoding="UTF-8"?>
<svg width="96px" height="60px" viewBox="0 0 96 60" version="1.1" xmlns="http://www.w3.org/2000/svg" xmlns:xlink="http://www.w3.org/1999/xlink">
    <g id="Page-1" stroke="none" stroke-width="1" fill="none" fill-rule="evenodd">
        <rect id="Rectangle-Copy-3" fill="#E46C2A" x="0" y="0" width="96" height="60"></rect>
        <g id="hiper-seeklogo.com" transform="translate(18.000000, 18.000000)">
            <polyline id="Fill-2" fill="#FFFFFE" points="0.806632124 1.66341969 0.806632124 19.6043523 4.87948187 19.6043523 4.87948187 12.0978238 11.5606218 12.0978238 11.5606218 19.6043523 15.6067358 19.6043523 15.6067358 1.66341969 11.5606218 1.66341969 11.5606218 8.55751295 4.87948187 8.55751295 4.87948187 1.66341969 0.806632124 1.66341969"></polyline>
            <path d="M50.6467358,14.3871503 C50.6998964,14.0943005 50.7797927,13.4821762 50.7797927,12.7898446 C50.7797927,9.56911917 49.182487,6.29492228 44.9768912,6.29492228 C40.4517098,6.29492228 38.4020725,9.94186528 38.4020725,13.242487 C38.4020725,17.3153368 40.9307772,19.8707772 45.3493264,19.8707772 C47.1064249,19.8707772 48.7301554,19.6043523 50.0610363,19.0721244 L49.5284974,16.3301554 C48.4373057,16.6764767 47.3193782,16.8626943 45.9350259,16.8626943 C44.0451813,16.8626943 42.394715,16.0640415 42.261658,14.3871503 L50.6467358,14.3871503 Z M42.2349223,11.6187565 C42.3415544,10.5272539 43.0335751,8.98341969 44.7372021,8.98341969 C46.6006218,8.98341969 47.0265285,10.633886 47.0265285,11.6187565 L42.2349223,11.6187565 Z" id="Fill-3" fill="#FFFFFE"></path>
            <path d="M52.0761658,19.6043523 L56.1222798,19.6043523 L56.1222798,13.0031088 C56.1222798,12.6835233 56.1490155,12.3639378 56.2021762,12.0978238 C56.4682902,10.8468394 57.4798964,10.0481865 58.9705699,10.0481865 C59.4232124,10.0481865 59.7692228,10.1013472 60.0617617,10.1548187 L60.0617617,6.3480829 C59.7692228,6.29492228 59.5826943,6.29492228 59.2099482,6.29492228 C57.9589637,6.29492228 56.3619689,7.09357513 55.6963731,8.98341969 L55.5900518,8.98341969 L55.4569948,6.58777202 L51.9698446,6.58777202 C52.0230052,7.70569948 52.0761658,8.95699482 52.0761658,10.8735751 L52.0761658,19.6043523" id="Fill-4" fill="#FFFFFE"></path>
            <path d="M19.722487,0.941243523 C20.8711917,0.941243523 21.8025907,1.87264249 21.8025907,3.02134715 C21.8025907,4.16974093 20.8711917,5.1011399 19.722487,5.1011399 C18.5737824,5.1011399 17.6423834,4.16974093 17.6423834,3.02134715 C17.6423834,1.87264249 18.5737824,0.941243523 19.722487,0.941243523" id="Fill-5" fill="#FFE80F"></path>
            <path d="M28.2673575,16.5720207 L30.298342,16.5720207 C32.3370984,16.5720207 33.2594819,15.2663212 33.2594819,13.9046632 C33.2594819,12.5430052 33.1615544,9.46310881 30.6409326,9.46310881 C27.7460104,9.46310881 28.2154404,13.2860104 28.2278756,15.287772 C28.2303627,15.715544 28.2558549,16.1436269 28.2673575,16.5720207 Z M17.6423834,6.56943005 L21.8025907,6.56943005 L21.8025907,13.9046632 C21.8025907,15.2653886 22.5577202,16.5701554 24.2271503,16.5720207 C24.2389637,13.2695337 24.2259067,9.86974093 24.1149223,6.56943005 L27.5902591,6.56943005 C27.6667358,7.20518135 27.7354404,7.84248705 27.7973057,8.48134715 C29.4393782,5.19751295 34.6136788,5.92062176 36.3549223,8.69243523 C38.1536788,11.5556477 38.7658031,19.7529534 30.298342,19.7529534 L28.3267358,19.7529534 C28.3456995,21.4174093 28.3488083,23.0843523 28.3488083,24.7516062 L24.1889119,24.7516062 C24.1889119,23.1518135 24.1997927,21.4752332 24.2103627,19.7526425 C19.7144041,19.7370984 17.6423834,16.8819689 17.6423834,13.9046632 L17.6423834,6.56943005 Z" id="Fill-6" fill="#FFFFFE"></path>
        </g>
    </g>
</svg>